<svg xmlns="http://www.w3.org/2000/svg" viewBox="0 0 512 512">
  <defs>
    <linearGradient id="grad1" x1="0%" y1="0%" x2="100%" y2="100%">
      <stop offset="0%" style="stop-color:#FF512F;stop-opacity:1" />
      <stop offset="100%" style="stop-color:#DD2476;stop-opacity:1" />
    </linearGradient>
  </defs>
  <circle cx="256" cy="256" r="240" fill="url(#grad1)" />
  <path d="M160 140 h120 c20 0 40 20 40 40 v20 c0 20 -20 40 -40 40 h-80 v60 h80 c20 0 40 20 40 40 v20 c0 20 -20 40 -40 40 h-120 v-260 z" fill="white" />
  <path d="M340 320 h100 v40 h-100 c-20 0 -40 -20 -40 -40 v-20 c0 -20 20 -40 40 -40 h80 v-20 h-80 v-40 h100 v40" fill="white" opacity="0.9" />
  <text x="50%" y="450" font-family="Arial, sans-serif" font-size="60" font-weight="bold" fill="white" text-anchor="middle">FOOD CRAZE</text>
</svg>
