<svg xmlns="http://www.w3.org/2000/svg" viewBox="0 0 500 150">
  <defs>
    <!-- Paper Texture Filter -->
    <filter id="paper" x="0%" y="0%" width="100%" height="100%">
      <feTurbulence type="fractalNoise" baseFrequency="0.9" numOctaves="3" result="noise"/>
      <feColorMatrix type="matrix" values="1 0 0 0 0  0 1 0 0 0  0 0 1 0 0  0 0 0 0.4 0"/>
    </filter>
  </defs>

  <!-- Red Sun (Iconic Japanese Anime Element) -->
  <circle cx="80" cy="75" r="50" fill="#EF4444" opacity="0.9" />
  
  <!-- Mount Fuji Outline in Ink Style -->
  <path d="M20 125 L80 50 L140 125" fill="none" stroke="#1F2937" stroke-width="3" stroke-linecap="round" stroke-linejoin="round" />
  <path d="M70 65 L80 50 L90 65" fill="#FFFFFF" opacity="0.8" /> <!-- Snow cap -->

  <!-- Pagoda Silhouette (Simplified / Modern) -->
  <g transform="translate(140, 45) scale(0.6)" fill="#111827">
    <path d="M50 0 L60 15 H40 Z" /> 
    <rect x="30" y="25" width="40" height="15" rx="2" />
    <path d="M20 25 L80 25 L90 15 H10 Z" />
    <rect x="25" y="50" width="50" height="15" rx="2" />
    <path d="M10 50 L90 50 L100 40 H0 Z" />
    <rect x="35" y="75" width="30" height="40" />
  </g>

  <!-- Cherry Blossom Branch -->
  <path d="M10 10 Q60 60 120 20" stroke="#701a75" stroke-width="2" fill="none" opacity="0.6"/>
  <circle cx="30" cy="20" r="4" fill="#F472B6" />
  <circle cx="50" cy="35" r="3" fill="#F472B6" />
  <circle cx="80" cy="25" r="5" fill="#EC4899" />
  <circle cx="100" cy="40" r="3" fill="#FBCFE8" />

  <!-- Falling Petals -->
  <circle cx="200" cy="40" r="3" fill="#F472B6" opacity="0.6" />
  <circle cx="450" cy="30" r="4" fill="#F472B6" opacity="0.5" />
  <circle cx="480" cy="120" r="2" fill="#F472B6" opacity="0.7" />

  <!-- Text: FOOD CRAZE -->
  <!-- Dark text for visibility on white background -->
  <text x="190" y="85" font-family="'Segoe UI', sans-serif" font-weight="900" font-size="56" fill="#111827" letter-spacing="-1">
    FOOD
  </text>
  <text x="192" y="125" font-family="'Segoe UI', sans-serif" font-weight="700" font-size="32" fill="#DC2626" letter-spacing="4">
    ADMIN
  </text>

  <!-- Subtitle Line -->
  <line x1="195" y1="95" x2="350" y2="95" stroke="#111827" stroke-width="2" />
  
</svg>
